# Blender 4.0.2
# www.blender.org
mtllib board.mtl.mtl
o Plane
v -0.904872 0.000000 0.611058
v -0.904872 0.000000 -0.571778
v -1.153293 -0.000000 -0.351627
v -1.341910 0.000000 0.184553
v -1.341910 0.000000 -0.184553
v -0.904872 0.176171 -0.571778
v -1.341910 0.176368 0.184553
v 0.811058 0.000000 -0.611058
v -1.155885 0.000000 0.466043
v -1.153293 0.176171 -0.351627
v -1.155885 0.176368 0.466043
v -1.341910 0.176368 -0.184553
v 1.056761 0.000000 0.089745
v 1.056761 0.000000 -0.089745
v 1.056761 0.176368 0.089745
v 1.056761 0.176368 -0.089745
v -0.904872 0.000000 -0.758349
v -1.155885 0.000000 -0.613334
v -1.341910 0.000000 -0.361349
v 0.811058 0.176368 -0.758349
v -0.904872 0.176368 -0.758349
v 0.811058 0.000000 -0.758349
v -1.155885 0.176368 -0.613334
v -1.341910 0.176368 -0.361349
v 0.811058 0.176368 -0.611058
v 1.056557 0.000000 -0.611058
v 1.056557 0.176368 -0.611058
v 1.056557 0.000000 -0.758349
v 1.056557 0.176368 -0.758349
v -0.904872 0.000000 -0.591631
v -1.153293 -0.000000 -0.371481
v -1.153293 0.176171 -0.371481
v -0.904872 0.176171 -0.591631
v 0.811058 0.000197 -0.630911
v 0.811058 0.176368 -0.630911
v 1.056557 0.000197 -0.630911
v 1.056557 0.176368 -0.630911
v 0.811058 0.000000 0.611058
v 0.811058 0.176368 0.611058
v -0.904872 0.176368 0.611058
v -0.213723 0.175043 0.177992
v -0.213723 0.075043 0.177992
v -0.213723 0.075043 0.077992
v -0.213723 0.175043 0.077992
v 0.001382 -0.025804 0.177992
v 0.001382 0.074196 0.177992
v 0.001382 -0.025804 0.023183
v 0.001382 0.074196 0.023183
v -0.301209 0.079021 0.155378
v -0.301209 0.079021 0.255378
v -0.301209 0.179021 0.255378
v -0.301209 0.179021 0.155378
v -0.383893 0.079021 0.233086
v -0.306241 0.079021 0.317275
v -0.306241 0.179021 0.317275
v -0.383893 0.179021 0.233086
v -0.434266 0.079021 0.331439
v -0.298986 0.079021 0.441414
v -0.298986 0.179021 0.441414
v -0.434266 0.179021 0.331439
v -0.375375 0.072471 0.609665
v -0.375375 0.172471 0.609665
v -0.435681 0.172471 0.550421
v -0.435681 0.072471 0.550421
v 0.442649 0.079021 0.343133
v 0.442649 0.179021 0.343133
v 0.405135 0.072471 0.610960
v 0.405135 0.172471 0.610960
v -0.130025 0.079021 0.342183
v -0.167539 0.072471 0.610010
v -0.130025 0.179021 0.342183
v -0.167539 0.172471 0.610010
v 0.430145 0.076837 0.467964
v 0.417640 0.074654 0.531221
v 0.060866 0.079021 0.342500
v 0.360282 0.079021 0.342817
v 0.322768 0.072471 0.610643
v 0.023352 0.072471 0.610327
v -0.142530 0.076837 0.431459
v -0.155035 0.074654 0.520734
v 0.035857 0.074654 0.521051
v 0.335273 0.074654 0.530905
v 0.048362 0.076837 0.431775
v 0.347778 0.076837 0.467647
v 0.660233 0.175089 0.467806
v 0.660233 -0.001111 -0.467806
v 0.660233 0.076397 -0.467806
v 0.704300 0.010436 0.463076
v 0.704300 0.010436 -0.463076
v 0.704300 0.087944 -0.463076
v 0.704300 0.087944 0.463076
v 0.660233 -0.001111 -0.531063
v 0.660233 0.076397 -0.531063
v 0.660233 0.175089 0.531063
v 0.660233 -0.001111 0.531063
v 0.747586 0.075447 0.258125
v 0.758312 -0.001111 -0.258026
v 0.747586 -0.002061 0.258125
v 0.758312 0.076397 -0.258026
v 0.747586 0.075447 -0.258125
v 0.758312 0.076397 0.258026
v 0.758312 -0.001111 0.258026
v 0.747586 -0.002061 -0.258125
v 0.660233 -0.001111 0.467806
v 0.115987 0.076397 -0.467806
v 0.115987 -0.001111 -0.467806
v 0.115987 0.076397 -0.531063
v 0.115987 -0.001111 -0.531063
v 0.347815 -0.001111 0.467806
v 0.347815 0.175089 0.467806
v 0.115987 -0.001111 0.531063
v 0.115987 0.175089 0.531063
vn -0.0000 1.0000 -0.0000
vn 0.5002 -0.0000 -0.8659
vn 0.8343 -0.0000 -0.5513
vn 1.0000 -0.0000 -0.0000
vn -1.0000 -0.0000 -0.0000
vn -0.9046 -0.0000 0.4263
vn -0.9046 -0.0000 -0.4263
vn -0.0000 -0.0000 1.0000
vn 0.5002 -0.0000 0.8659
vn 0.8045 -0.0000 0.5939
vn -0.6632 -0.0000 -0.7484
vn -0.0000 -1.0000 -0.0000
vn -0.0001 1.0000 -0.0000
vn 0.6632 -0.0000 0.7484
vn 0.0229 -0.0000 0.9997
vn -0.0229 -0.0000 -0.9997
vn -0.0000 -0.0000 -1.0000
vn -0.0000 -1.0000 -0.0099
vn -0.0001 -1.0000 -0.0050
vn -0.0000 1.0000 -0.0015
vn -0.0001 1.0000 -0.0007
vn -0.6625 -0.0000 -0.7490
vn -0.2469 -0.0000 -0.9690
vn 0.9983 -0.0000 -0.0583
vn -0.4245 -0.9054 -0.0000
vn -0.8901 -0.0000 -0.4559
vn 0.6625 -0.0000 0.7490
vn 0.0249 -0.9993 -0.0288
vn -0.0454 -0.9990 -0.0000
vn -0.6848 -0.0000 -0.7287
vn 0.9967 -0.0000 0.0810
vn -0.7008 -0.0000 0.7134
vn 0.9900 0.0209 0.1392
vn -1.0000 -0.0000 -0.0065
vn -0.0017 -0.0000 1.0000
vn 0.0017 0.0006 -1.0000
vn -0.0017 -0.0006 1.0000
vn -0.5064 -0.0000 -0.8623
vn -0.0085 -0.9994 -0.0322
vn 0.0001 -0.9994 -0.0345
vn -0.0000 -0.9997 -0.0244
vn 0.0004 -0.9997 -0.0258
vn 0.0022 -0.9996 -0.0283
vn 0.0012 -0.9998 -0.0202
vn -0.9231 -0.0000 0.3846
vn 0.9670 -0.0000 0.2547
vn 0.2301 -0.9672 0.1076
vn 0.8387 0.5250 0.1451
vn 0.8391 -0.0000 0.5439
vn 0.2535 -0.9673 -0.0000
vn -0.2535 0.9673 -0.0000
vn 0.8391 -0.0000 -0.5439
vn 0.8924 0.4513 -0.0000
vn -0.2301 0.9672 0.1076
vn 0.2301 -0.9672 -0.1076
vn 0.9670 -0.0000 -0.2547
vn -0.9231 -0.0000 -0.3846
vn -0.0092 -0.0000 -1.0000
vn -0.0092 -0.0000 1.0000
vn -0.2632 -0.0000 -0.9647
vt 0.000000 0.000000
vt 0.000000 1.000000
vt 1.000000 0.000000
vt 1.000000 1.000000
vt 0.625000 0.250000
vt 0.375000 0.250000
vt 0.625000 0.500000
vt 0.375000 0.500000
vt 0.375000 1.000000
vt 0.625000 1.000000
vt 0.375000 0.750000
vt 0.625000 0.750000
vt 0.125000 0.500000
vt 0.125000 0.750000
vt 0.375000 0.000000
vt 0.625000 0.000000
vt 0.375000 0.000000
vt 0.375000 0.125000
vt 0.625000 0.125000
vt 0.875000 0.750000
vt 0.375000 0.625000
vt 0.625000 0.625000
vt 0.682478 0.625000
vt 0.317522 0.625000
vt 0.875000 0.500000
vt 0.464477 0.625000
vt 0.535523 0.625000
vt 0.625000 1.239957
vt 0.375000 1.239957
s 0
f 1/1/1 2/2/1 3/2/1 9/1/1
f 9/1/1 3/2/1 5/2/1 4/1/1
f 1/1/2 9/1/2 11/1/2 40/1/2
f 3/2/1 31/2/1 5/2/1
f 2/1/1 1/1/1 38/3/1 8/1/1
f 9/1/3 4/1/3 7/1/3 11/1/3
f 8/4/1 38/3/1 13/3/1 14/4/1
f 4/1/4 5/2/4 12/2/4 7/1/4
f 14/4/5 13/3/5 15/3/5 16/4/5
f 25/4/6 8/4/6 14/4/6 16/4/6
f 38/3/7 39/3/7 15/3/7 13/3/7
f 17/2/8 22/4/8 20/4/8 21/2/8
f 18/2/9 17/2/9 21/2/9 23/2/9
f 19/2/10 18/2/10 23/2/10 24/2/10
f 12/2/4 5/2/4 19/2/4 24/2/4
f 25/1/1 27/1/1 37/1/1 35/1/1
f 3/2/5 10/2/5 32/2/5 31/2/5
f 20/4/8 22/4/8 28/4/8 29/4/8
f 30/2/11 31/2/11 32/2/11 33/2/11
f 2/2/12 3/2/12 31/2/12 30/2/12
f 8/1/8 26/1/8 27/1/8 25/1/8
f 10/1/1 6/1/1 33/1/1 32/1/1
f 6/1/13 25/1/13 35/1/13 33/1/13
f 2/2/14 6/1/14 10/2/14 3/2/14
f 2/1/15 8/1/15 25/1/15 6/1/15
f 6/1/4 2/1/4 30/1/4 33/1/4
f 33/2/16 35/2/16 34/2/16 30/2/16
f 35/2/17 37/2/17 36/2/17 34/2/17
f 26/1/4 36/2/4 37/1/4 27/1/4
f 26/1/18 8/1/18 34/2/18 36/2/18
f 34/1/19 8/1/19 2/1/19 30/1/19
f 29/4/5 28/4/5 36/2/5 37/2/5
f 22/1/20 34/1/20 36/1/20 28/1/20
f 34/1/21 22/1/21 17/1/21 30/1/21
f 18/2/1 19/2/1 5/2/1 31/2/1
f 30/1/1 17/1/1 18/1/1 31/1/1
f 44/5/22 43/6/22 49/6/22 52/5/22
f 43/6/23 44/5/23 48/7/23 47/8/23
f 54/9/24 55/10/24 59/10/24 58/9/24
f 45/11/8 46/12/8 41/10/8 42/9/8
f 43/13/25 47/8/25 45/11/25 42/14/25
f 53/13/12 54/14/12 58/14/12 57/13/12
f 56/5/26 53/6/26 57/6/26 60/5/26
f 42/9/27 41/10/27 51/10/27 50/9/27
f 57/13/28 58/14/28 61/14/28 64/13/28
f 43/13/29 42/14/29 50/14/29 49/13/29
f 49/13/12 50/14/12 54/14/12 53/13/12
f 52/5/30 49/6/30 53/6/30 56/5/30
f 50/9/31 51/10/31 55/10/31 54/9/31
f 61/15/32 62/16/32 63/5/32 64/6/32
f 65/9/33 66/10/33 68/10/33 67/9/33 74/9/33 73/9/33
f 60/5/34 57/6/34 64/6/34 63/5/34
f 62/16/35 61/15/35 70/17/35 72/16/35
f 69/9/36 71/10/36 66/10/36 65/9/36 76/9/36 75/9/36
f 72/16/37 70/17/37 78/17/37 77/17/37 67/15/37 68/16/37
f 58/9/38 59/10/38 71/10/38 69/9/38
f 61/14/39 58/14/39 69/14/39 79/14/39 80/14/39 70/14/39
f 39/3/17 38/3/17 1/1/17 40/1/17
f 82/14/40 84/14/40 73/14/40 74/14/40
f 70/14/41 80/14/41 81/14/41 78/14/41
f 78/14/42 81/14/42 82/14/42 77/14/42
f 80/14/41 79/14/41 83/14/41 81/14/41
f 81/14/43 83/14/43 84/14/43 82/14/43
f 79/14/41 69/14/41 75/14/41 83/14/41
f 83/14/44 75/14/44 76/14/44 84/14/44
f 103/18/45 100/19/45 87/5/45 86/6/45
f 94/20/8 112/20/8 111/15/8 95/11/8
f 102/21/46 101/22/46 91/12/46 88/11/46
f 98/23/47 102/21/47 88/11/47 104/14/47
f 101/22/48 96/24/48 85/20/48 91/12/48
f 88/11/49 91/12/49 94/12/49 95/11/49
f 95/11/50 104/15/50 88/11/50
f 87/25/51 90/7/51 93/25/51
f 111/15/12 109/15/12 104/15/12 95/11/12
f 90/7/52 89/8/52 92/8/52 93/7/52
f 89/8/50 86/13/50 92/8/50
f 91/12/53 85/20/53 94/12/53
f 90/7/54 87/25/54 100/26/54 99/22/54
f 86/13/55 89/8/55 97/21/55 103/27/55
f 89/8/56 90/7/56 99/22/56 97/21/56
f 104/15/57 85/16/57 96/28/57 98/29/57
f 96/28/58 101/22/58 102/21/58 98/29/58
f 103/27/59 97/21/59 99/22/59 100/26/59
f 92/13/12 86/13/12 106/13/12 108/13/12
f 106/6/5 105/5/5 107/5/5 108/6/5
f 110/16/60 109/15/60 111/15/60 112/16/60
f 85/16/17 104/15/17 109/15/17 110/16/17
f 87/25/1 93/25/1 107/25/1 105/25/1
f 86/6/8 87/5/8 105/5/8 106/6/8
f 93/5/17 92/6/17 108/6/17 107/5/17
f 94/20/1 85/20/1 110/20/1 112/20/1
