# Blender 4.0.2
# www.blender.org
mtllib board.mtl
o Plane
v -0.904872 0.000000 -0.571778
v -1.153293 -0.000000 -0.351627
v -1.341910 0.000000 -0.184553
v -0.904872 0.176171 -0.571778
v 0.811058 0.000000 -0.611058
v -1.153293 0.176171 -0.351627
v -1.341910 0.176368 -0.184553
v 1.056761 0.000000 0.089745
v 1.056761 0.000000 -0.089745
v 1.056761 0.176368 0.089745
v 1.056761 0.176368 -0.089745
v -0.904872 0.000000 -0.758349
v -1.155885 0.000000 -0.613334
v -1.341910 0.000000 -0.361349
v 0.811058 0.176368 -0.758349
v -0.904872 0.176368 -0.758349
v 0.811058 0.000000 -0.758349
v -1.155885 0.176368 -0.613334
v -1.341910 0.176368 -0.361349
v 0.811058 0.176368 -0.611058
v 1.056557 0.000000 -0.611058
v 1.056557 0.176368 -0.611058
v 1.056557 0.000000 -0.758349
v 1.056557 0.176368 -0.758349
v -0.904872 0.000000 -0.591631
v -1.153293 -0.000000 -0.371481
v -1.153293 0.176171 -0.371481
v -0.904872 0.176171 -0.591631
v 0.811058 0.000197 -0.630911
v 0.811058 0.176368 -0.630911
v 1.056557 0.000197 -0.630911
v 1.056557 0.176368 -0.630911
v 0.811058 0.000000 0.611058
v 0.811058 0.176368 0.611058
v -0.213723 0.175043 0.177992
v -0.213723 0.055883 0.177992
v -0.213723 0.055883 0.077992
v -0.213723 0.175043 0.077992
v 0.001382 -0.002324 0.177992
v 0.001382 0.074196 0.177992
v 0.001382 -0.002324 0.023183
v 0.001382 0.074196 0.023183
v -0.301209 0.079021 0.155378
v -0.301209 0.079021 0.255378
v -0.301209 0.179021 0.255378
v -0.301209 0.179021 0.155378
v -0.383893 0.079021 0.233086
v -0.306241 0.079021 0.317275
v -0.306241 0.179021 0.317275
v -0.383893 0.179021 0.233086
v -0.434266 0.079021 0.331439
v -0.298986 0.079021 0.441414
v -0.298986 0.179021 0.441414
v -0.434266 0.179021 0.331439
v -0.375375 0.072471 0.609665
v -0.375375 0.172471 0.609665
v -0.435681 0.172471 0.550421
v -0.435681 0.072471 0.550421
v 0.442649 0.079021 0.343133
v 0.442649 0.179021 0.343133
v 0.405135 0.072471 0.610960
v 0.405135 0.172471 0.610960
v -0.130025 0.079021 0.342183
v -0.167539 0.072471 0.610010
v -0.130025 0.179021 0.342183
v -0.167539 0.172471 0.610010
v 0.430145 0.076837 0.467964
v 0.417640 0.074654 0.531221
v 0.060866 0.079021 0.342500
v 0.360282 0.079021 0.342817
v 0.322768 0.072471 0.610643
v 0.023352 0.072471 0.610327
v -0.142530 0.076837 0.431459
v -0.155035 0.074654 0.520734
v 0.035857 0.074654 0.521051
v 0.335273 0.074654 0.530905
v 0.048362 0.076837 0.431775
v 0.347778 0.076837 0.467647
v 0.660233 0.175089 0.467806
v 0.660233 -0.001111 -0.467806
v 0.660233 0.076397 -0.467806
v 0.704300 0.010436 0.463076
v 0.704300 0.010436 -0.463076
v 0.704300 0.087944 -0.463076
v 0.704300 0.087944 0.463076
v 0.660233 -0.001111 -0.531063
v 0.660233 0.076397 -0.531063
v 0.660233 0.175089 0.531063
v 0.660233 -0.001111 0.531063
v 0.747586 0.075447 0.258125
v 0.758312 -0.001111 -0.258026
v 0.747586 -0.002061 0.258125
v 0.758312 0.076397 -0.258026
v 0.747586 0.075447 -0.258125
v 0.758312 0.076397 0.258026
v 0.758312 -0.001111 0.258026
v 0.747586 -0.002061 -0.258125
v 0.660233 -0.001111 0.467806
v 0.115987 0.076397 -0.467806
v 0.115987 -0.001111 -0.467806
v 0.115987 0.076397 -0.531063
v 0.115987 -0.001111 -0.531063
v 0.347815 0.175089 0.467806
v 0.115987 -0.001111 0.531063
v 0.115987 0.175089 0.531063
v -0.219955 0.049217 0.069675
v -0.213098 0.046491 0.185983
v -0.208605 0.175043 0.189228
v -0.297190 0.067336 0.437850
v -0.293168 0.179021 0.430524
v -0.219936 0.175043 0.067322
v -0.004298 -0.010427 0.015799
v -0.001667 0.074196 0.011218
v -0.002870 -0.011393 0.185212
v 0.452023 0.079224 0.335100
v 0.451900 0.179222 0.334958
v 0.001382 0.074196 0.190339
v -0.307371 0.070481 0.148931
v -0.294644 0.069121 0.258747
v -0.290142 0.179021 0.260853
v -0.443293 0.070911 0.329158
v -0.309529 0.179021 0.146256
v -0.391213 0.070740 0.227580
v -0.297713 0.070092 0.317372
v -0.293894 0.179021 0.317415
v -0.378996 0.064559 0.618425
v -0.380058 0.172471 0.621089
v -0.393761 0.179021 0.225664
v -0.446253 0.179021 0.328478
v -0.447101 0.172471 0.555115
v -0.444449 0.064533 0.553962
v -0.132465 0.071075 0.333053
v 0.413155 0.072636 0.620346
v 0.413288 0.172639 0.620231
v 0.428388 0.068718 0.532520
v 0.360307 0.073825 0.331616
v -0.167595 0.063615 0.618613
v -0.133255 0.179025 0.330266
v 0.023339 0.063629 0.618945
v -0.155087 0.062312 0.520384
v -0.167560 0.172467 0.622357
v 0.441389 0.071933 0.469367
v 0.060886 0.070388 0.333672
v 0.322753 0.066455 0.621425
v -0.142582 0.064496 0.431109
v 0.335285 0.062313 0.530542
v 0.035865 0.062311 0.520734
v 0.347791 0.064495 0.467302
v 0.048372 0.064494 0.431474
v -0.132465 0.003118 0.333053
v 0.060886 0.002431 0.333672
v 0.360307 0.005868 0.331616
v -0.142582 -0.003461 0.431109
v 0.048372 -0.003463 0.431474
v 0.347791 -0.003462 0.467302
v -0.904872 0.000000 0.179653
v -1.341910 0.176367 0.184552
v -0.904872 0.176368 0.611057
v -0.518019 0.063812 0.603513
v -0.116230 -0.001552 0.203199
v -0.424027 0.063812 0.437521
v -1.155885 0.176368 0.083570
v -1.155885 0.000000 0.083570
v -0.552158 0.063812 0.245815
v -0.116230 0.063812 0.203199
v -0.132053 -0.001552 0.334122
v -0.132053 0.063812 0.334122
v -0.458165 0.063812 0.343529
v -1.341909 -0.000000 -0.032659
v -1.155885 0.176368 0.466043
v -0.518019 -0.001552 0.603513
v -1.155885 -0.000000 0.466043
v -0.552158 -0.001552 0.245815
v -0.458165 -0.001552 0.343529
v -0.904872 0.176368 0.179653
v -1.341909 -0.000000 0.184553
v -0.424027 -0.001552 0.437521
v -1.341910 0.176367 -0.032659
v -0.904872 -0.000000 0.611058
v -0.115406 -0.001552 0.205337
v -0.115406 0.063812 0.205337
v -0.458762 0.063812 0.346215
v -0.458762 -0.001552 0.346215
v -0.553367 0.063812 0.292274
v -0.553367 -0.001552 0.292274
v -0.905443 0.176368 0.197703
v -0.905443 0.000000 0.197703
v -1.156815 0.176368 0.091589
v -1.156815 0.000000 0.091589
v -1.339618 0.176367 -0.028413
v -1.339617 -0.000000 -0.028413
v -1.339617 -0.000000 0.183864
v -1.339618 0.176367 0.183863
v -1.154270 0.176368 0.464329
v -1.154270 -0.000000 0.464329
v -0.904278 -0.000000 0.608754
v -0.904278 0.176368 0.608753
v -0.519370 0.063812 0.601247
v -0.519370 -0.001552 0.601247
v -0.466100 0.063812 0.443941
v -0.466100 -0.001552 0.443941
v -0.132877 0.063812 0.331983
v -0.132877 -0.001552 0.331983
v -0.608224 0.063812 0.340466
v -0.608224 -0.001552 0.340466
v -0.735578 0.116065 0.318215
v -0.735578 0.000000 0.318215
v 0.042288 0.000000 -0.520804
v -0.564025 0.079852 -0.507122
v -0.643571 0.079852 -0.331292
v 0.042288 0.000000 -0.586505
v -0.555646 0.079852 -0.249593
v -0.555646 -0.000000 -0.249593
v -0.051292 0.000000 -0.349264
v -0.621587 0.000000 -0.273167
v -0.564025 0.079852 -0.572822
v -0.643571 0.000000 -0.331292
v -0.649567 0.000000 -0.570399
v -0.649567 0.000000 -0.504699
v -0.324350 0.000000 -0.340334
v -0.321968 -0.000000 -0.256212
v -0.555646 0.148238 -0.249593
v -0.051292 0.148238 -0.349264
v -0.649567 0.148238 -0.570399
v -0.019069 0.079852 -0.408331
v -0.019069 0.148238 -0.408331
v 0.018319 0.148238 -0.476867
v -0.073803 0.079852 -0.583885
v -0.073803 0.148238 -0.583885
v -0.621587 0.079852 -0.273167
v -0.558029 0.079852 -0.333715
v -0.558029 0.148238 -0.333715
v -0.621587 0.148238 -0.273167
v -0.649567 0.079852 -0.570399
v -0.051292 0.079852 -0.349264
v -0.564025 0.148238 -0.572822
v -0.643571 0.148238 -0.331292
v -0.649567 0.148238 -0.504699
v -0.649567 0.079852 -0.504699
v 0.042288 0.079852 -0.520804
v 0.042288 0.079852 -0.586505
v 0.042288 0.148238 -0.586505
v 0.042288 0.148238 -0.520804
v 0.018319 0.079852 -0.476867
v -0.023962 0.079852 -0.411000
v -0.023962 0.148238 -0.411000
v -0.553770 0.079852 -0.254840
v -0.553770 0.148238 -0.254840
v -0.054210 0.148238 -0.354012
v -0.558200 0.079852 -0.339285
v -0.558200 0.148238 -0.339285
v -0.643995 0.148238 -0.504795
v -0.638107 0.148238 -0.332389
v -0.643995 0.079852 -0.504795
v 0.042414 0.148238 -0.580933
v 0.042414 0.079852 -0.580933
v -0.563883 0.079852 -0.567251
v -0.617683 0.079852 -0.277143
v -0.638107 0.079852 -0.332389
v -0.054210 0.079852 -0.354012
v -0.645571 0.079852 -0.566514
v -0.563883 0.148238 -0.567251
v -0.617683 0.148238 -0.277143
v -0.645571 0.148238 -0.566514
vn -0.0000 1.0000 -0.0000
vn 1.0000 -0.0000 -0.0000
vn -1.0000 -0.0000 -0.0000
vn -0.9046 -0.0000 0.4263
vn -0.9046 -0.0000 -0.4263
vn -0.0000 -0.0000 1.0000
vn 0.5002 -0.0000 0.8659
vn 0.8045 -0.0000 0.5939
vn -0.6632 -0.0000 -0.7484
vn -0.0000 -1.0000 -0.0000
vn -0.0001 1.0000 -0.0000
vn 0.6632 -0.0000 0.7484
vn 0.0229 -0.0000 0.9997
vn -0.0229 -0.0000 -0.9997
vn -0.0000 -0.0000 -1.0000
vn -0.0000 -1.0000 -0.0099
vn -0.0001 -1.0000 -0.0050
vn -0.0000 1.0000 -0.0015
vn -0.0001 1.0000 -0.0007
vn 0.6625 -0.0000 0.7490
vn 0.2469 -0.0000 0.9690
vn -0.9983 -0.0000 0.0583
vn 0.2612 0.9653 -0.0000
vn 0.8901 -0.0000 0.4559
vn -0.6625 -0.0000 -0.7490
vn -0.0249 0.9993 0.0288
vn 0.2557 0.9668 -0.0000
vn 0.6848 -0.0000 0.7287
vn -0.9967 -0.0000 -0.0810
vn 0.7008 -0.0000 -0.7134
vn 0.0017 -0.0000 -1.0000
vn 1.0000 -0.0000 0.0065
vn -0.0205 -0.9986 -0.0492
vn 0.0156 0.9995 0.0266
vn 0.5064 -0.0000 0.8623
vn -0.0001 0.9994 0.0345
vn -0.0000 0.9997 0.0244
vn -0.0004 0.9997 0.0258
vn -0.0022 0.9996 0.0283
vn -0.0012 0.9998 0.0202
vn -0.9231 -0.0000 0.3846
vn 0.9670 -0.0000 0.2547
vn 0.2301 -0.9672 0.1076
vn 0.8387 0.5250 0.1451
vn 0.8391 -0.0000 0.5439
vn 0.2535 -0.9673 -0.0000
vn -0.2535 0.9673 -0.0000
vn 0.0027 -0.9997 0.0235
vn 0.8391 -0.0000 -0.5439
vn 0.8924 0.4513 -0.0000
vn -0.2301 0.9672 0.1076
vn 0.2301 -0.9672 -0.1076
vn 0.9670 -0.0000 -0.2547
vn -0.9231 -0.0000 -0.3846
vn -0.0092 -0.0000 -1.0000
vn -0.0092 -0.0000 1.0000
vn -0.2642 0.0014 -0.9645
vn 0.0008 0.0014 -1.0000
vn -0.6679 -0.0221 -0.7439
vn -0.2555 -0.0286 -0.9664
vn 0.9993 -0.0357 -0.0058
vn -0.0153 -0.0384 0.9991
vn -0.2666 -0.9638 -0.0047
vn -0.0067 -0.9999 -0.0132
vn -0.8899 -0.0281 -0.4553
vn 0.6585 -0.0417 0.7514
vn 0.0015 -0.9998 -0.0223
vn -0.2481 -0.9687 0.0040
vn -0.0163 -0.9999 -0.0014
vn -0.6848 -0.0303 -0.7281
vn 0.9975 -0.0385 0.0594
vn -0.7013 -0.0247 0.7124
vn 0.9902 0.0339 0.1358
vn -0.9996 -0.0260 -0.0052
vn -0.0035 -0.0296 0.9996
vn 0.0056 -0.0036 -1.0000
vn 0.0003 -0.0136 0.9999
vn -0.5335 -0.0311 -0.8452
vn 0.0745 -0.9968 -0.0275
vn -0.0000 -0.9999 0.0133
vn 0.0041 -0.9996 0.0294
vn -0.0000 -0.9997 -0.0244
vn 0.0022 -0.9996 -0.0283
vn -0.9947 -0.0000 -0.1026
vn 0.9958 -0.0000 0.0919
vn 0.0329 -0.9563 -0.2905
vn 0.9939 -0.0589 0.0929
vn -0.0002 1.0000 -0.0075
vn 0.0254 0.9994 -0.0246
vn 0.4270 0.8995 -0.0927
vn -0.2752 -0.9607 -0.0356
vn -0.0000 1.0000 0.0002
vn -0.0225 0.9995 0.0206
vn 0.3834 0.9101 -0.1569
vn 0.0242 -0.9647 0.2622
vn 0.9153 -0.0264 -0.4019
vn -0.2393 -0.9693 -0.0568
vn 0.9863 0.0814 0.1438
vn -0.0146 0.0426 0.9990
vn 0.8656 -0.5006 -0.0053
vn 0.0001 1.0000 0.0002
vn 0.0022 0.9996 0.0294
vn 0.9797 -0.0320 0.1981
vn 0.0272 0.9994 -0.0200
vn 0.0157 -0.0510 -0.9986
vn -0.0002 0.9999 0.0101
vn -0.0016 -0.9980 -0.0637
vn 0.0093 -0.9979 -0.0641
vn -0.1188 -0.0000 0.9929
vn 0.0032 -0.0000 -1.0000
vn -0.0069 -0.0000 -1.0000
vn -0.0019 -0.0000 1.0000
vn -0.9881 -0.0273 -0.1511
vn -0.9950 -0.0000 -0.0997
vn -0.0017 -0.0000 1.0000
vn -0.0017 -0.0007 1.0000
vn 0.0017 0.0007 -1.0000
vn 0.0044 0.9994 0.0354
vn -0.0145 -0.9998 -0.0102
vn -0.3797 -0.0000 -0.9251
vn 0.7207 -0.0000 -0.6932
vn 0.1844 -0.0000 -0.9829
vn 0.3575 -0.0000 -0.9339
vn 0.5299 -0.0000 -0.8481
vn 0.8702 -0.0000 0.4927
vn 0.3338 -0.0000 0.9426
vn 0.3796 -0.0000 0.9252
vn 0.4953 -0.0000 -0.8687
vn 0.2913 0.9464 0.1397
vn -0.3889 -0.0000 0.9213
vn 0.5488 -0.0000 -0.8360
vn 0.8343 -0.0000 -0.5513
vn 0.5002 -0.0000 -0.8659
vn -0.0195 -0.0000 -0.9998
vn -0.9472 -0.0000 -0.3207
vn -0.3185 -0.0000 -0.9479
vn -0.0040 -1.0000 0.0007
vn 0.3025 0.9531 0.0083
vn 0.9331 -0.0000 -0.3597
vn 0.2789 0.9592 -0.0462
vn -0.0044 -1.0000 -0.0001
vn -0.9972 -0.0000 -0.0749
vn -0.1721 -0.0000 0.9851
vn -0.5786 -0.0000 0.8156
vn 0.6600 -0.0000 0.7513
vn -0.0078 -1.0000 0.0053
vn 0.0327 -0.0000 0.9995
vn -0.9353 -0.0000 0.3538
vn 0.3231 0.9463 -0.0092
vn 0.8779 -0.0000 0.4789
vn -0.3366 -0.0000 0.9416
vn -0.9994 -0.0000 0.0346
vn 0.0307 0.0069 0.9995
vn 0.0283 -0.0000 0.9996
vn -0.9995 -0.0000 0.0307
vn -0.7579 -0.0000 0.6524
vn 0.3295 -0.0000 -0.9442
vn -0.0292 -0.0000 -0.9996
vn 0.9380 -0.0000 -0.3468
vn 0.0226 -0.0000 0.9997
vn 0.9997 -0.0000 -0.0255
vn -0.8833 -0.0000 -0.4688
vn 0.0090 -0.0000 1.0000
vn 0.9994 -0.0000 -0.0341
vn 0.4789 -0.0000 -0.8779
vn 0.9416 -0.0000 0.3366
vn 0.9997 -0.0000 -0.0226
vn -0.0226 -0.0000 -0.9997
vn -0.0283 -0.0000 -0.9996
vn 0.0307 -0.0000 0.9995
vt 0.000000 0.000000
vt 0.000000 1.000000
vt 1.000000 0.000000
vt 1.000000 1.000000
vt 0.625000 0.250000
vt 0.375000 0.250000
vt 0.375000 0.500000
vt 0.625000 0.500000
vt 0.375000 1.000000
vt 0.625000 1.000000
vt 0.375000 0.750000
vt 0.625000 0.750000
vt 0.125000 0.500000
vt 0.125000 0.750000
vt 0.375000 0.000000
vt 0.625000 0.000000
vt 0.375000 0.000000
vt 0.375000 0.125000
vt 0.625000 0.125000
vt 0.875000 0.750000
vt 0.375000 0.625000
vt 0.625000 0.625000
vt 0.682478 0.625000
vt 0.317522 0.625000
vt 0.875000 0.500000
vt 0.464477 0.625000
vt 0.535523 0.625000
vt 0.625000 1.239957
vt 0.375000 1.239957
vt 0.655003 0.750000
s 0
f 179/1/1 1/2/1 2/2/1 172/1/1
f 172/1/1 2/2/1 3/2/1 176/1/1
f 2/2/1 26/2/1 3/2/1
f 1/1/1 179/1/1 33/3/1 5/1/1
f 5/4/1 33/3/1 8/3/1 9/4/1
f 176/1/2 3/2/2 7/2/2 157/1/2
f 9/4/3 8/3/3 10/3/3 11/4/3
f 20/4/4 5/4/4 9/4/4 11/4/4
f 33/3/5 34/3/5 10/3/5 8/3/5
f 12/2/6 17/4/6 15/4/6 16/2/6
f 13/2/7 12/2/7 16/2/7 18/2/7
f 14/2/8 13/2/8 18/2/8 19/2/8
f 7/2/2 3/2/2 14/2/2 19/2/2
f 20/1/1 22/1/1 32/1/1 30/1/1
f 2/2/3 6/2/3 27/2/3 26/2/3
f 15/4/6 17/4/6 23/4/6 24/4/6
f 25/2/9 26/2/9 27/2/9 28/2/9
f 1/2/10 2/2/10 26/2/10 25/2/10
f 5/1/6 21/1/6 22/1/6 20/1/6
f 6/1/1 4/1/1 28/1/1 27/1/1
f 4/1/11 20/1/11 30/1/11 28/1/11
f 1/2/12 4/1/12 6/2/12 2/2/12
f 1/1/13 5/1/13 20/1/13 4/1/13
f 4/1/2 1/1/2 25/1/2 28/1/2
f 28/2/14 30/2/14 29/2/14 25/2/14
f 30/2/15 32/2/15 31/2/15 29/2/15
f 21/1/2 31/2/2 32/1/2 22/1/2
f 21/1/16 5/1/16 29/2/16 31/2/16
f 29/1/17 5/1/17 1/1/17 25/1/17
f 24/4/3 23/4/3 31/2/3 32/2/3
f 17/1/18 29/1/18 31/1/18 23/1/18
f 29/1/19 17/1/19 12/1/19 25/1/19
f 13/2/1 14/2/1 3/2/1 26/2/1
f 25/1/1 12/1/1 13/1/1 26/1/1
f 38/5/20 46/5/20 43/6/20 37/6/20
f 37/6/21 41/7/21 42/8/21 38/5/21
f 48/9/22 52/9/22 53/10/22 49/10/22
f 39/11/15 36/9/15 35/10/15 40/12/15
f 37/13/23 36/14/23 39/11/23 41/7/23
f 47/13/1 51/13/1 52/14/1 48/14/1
f 50/5/24 54/5/24 51/6/24 47/6/24
f 36/9/25 44/9/25 45/10/25 35/10/25
f 51/13/26 58/13/26 55/14/26 52/14/26
f 37/13/27 43/13/27 44/14/27 36/14/27
f 43/13/1 47/13/1 48/14/1 44/14/1
f 46/5/28 50/5/28 47/6/28 43/6/28
f 44/9/29 48/9/29 49/10/29 45/10/29
f 55/15/30 58/6/30 57/5/30 56/16/30
f 64/17/31 66/16/31 72/17/31
f 54/5/32 57/5/32 58/6/32 51/6/32
f 56/16/31 66/16/31 64/17/31 55/15/31
f 145/14/33 140/14/33 109/14/33 132/14/33
f 73/14/34 63/14/34 52/14/34
f 52/9/35 63/9/35 65/10/35 53/10/35
f 34/3/15 33/3/15 179/1/15 158/1/15
f 76/14/36 68/14/36 67/14/36 78/14/36
f 64/14/37 72/14/37 75/14/37 74/14/37
f 72/14/38 71/14/38 76/14/38 75/14/38
f 74/14/37 75/14/37 77/14/37 73/14/37
f 75/14/39 76/14/39 78/14/39 77/14/39
f 73/14/37 77/14/37 69/14/37 63/14/37
f 77/14/40 78/14/40 70/14/40 69/14/40
f 97/18/41 94/19/41 81/5/41 80/6/41
f 88/20/6 105/20/6 104/15/6 89/11/6
f 96/21/42 95/22/42 85/12/42 82/11/42
f 92/23/43 96/21/43 82/11/43 98/14/43
f 95/22/44 90/24/44 79/20/44 85/12/44
f 82/11/45 85/12/45 88/12/45 89/11/45
f 89/11/46 98/15/46 82/11/46
f 81/25/47 84/8/47 87/25/47
f 104/15/48 155/15/48 98/15/48 89/11/48
f 84/8/49 83/7/49 86/7/49 87/8/49
f 83/7/46 80/13/46 86/7/46
f 85/12/50 79/20/50 88/12/50
f 84/8/51 81/25/51 94/26/51 93/22/51
f 80/13/52 83/7/52 91/21/52 97/27/52
f 83/7/53 84/8/53 93/22/53 91/21/53
f 98/15/54 79/16/54 90/28/54 92/29/54
f 90/28/55 95/22/55 96/21/55 92/29/55
f 97/27/56 91/21/56 93/22/56 94/26/56
f 86/13/10 80/13/10 100/13/10 102/13/10
f 100/6/3 99/5/3 101/5/3 102/6/3
f 103/16/57 155/15/57 104/15/57 105/16/57
f 79/16/58 98/15/58 155/15/58 103/16/58
f 81/25/1 87/25/1 101/25/1 99/25/1
f 80/6/6 81/5/6 99/5/6 100/6/6
f 87/5/15 86/6/15 102/6/15 101/5/15
f 88/20/1 79/20/1 103/20/1 105/20/1
f 111/5/59 106/6/59 118/6/59 122/5/59
f 106/6/60 111/5/60 113/8/60 112/7/60
f 124/9/61 125/10/61 110/10/61 109/9/61
f 114/11/62 117/12/62 108/10/62 107/9/62
f 106/13/63 112/7/63 114/11/63 107/14/63
f 123/13/64 124/14/64 109/14/64 121/13/64
f 128/5/65 123/6/65 121/6/65 129/5/65
f 107/9/66 108/10/66 120/10/66 119/9/66
f 121/13/67 109/14/67 126/14/67 131/13/67
f 106/13/68 107/14/68 119/14/68 118/13/68
f 118/13/69 119/14/69 124/14/69 123/13/69
f 122/5/70 118/6/70 123/6/70 128/5/70
f 119/9/71 120/10/71 125/10/71 124/9/71
f 126/15/72 127/16/72 130/5/72 131/6/72
f 115/9/73 116/10/73 134/10/73 133/9/73 135/9/73 142/9/73
f 129/5/74 121/6/74 131/6/74 130/5/74
f 127/16/75 126/15/75 137/17/75 141/16/75
f 132/9/76 138/10/76 116/10/76 115/9/76 136/9/76 143/9/76
f 141/16/77 137/17/77 139/17/77 144/17/77 133/15/77 134/16/77
f 109/9/78 110/10/78 138/10/78 132/9/78
f 146/14/79 148/14/79 142/14/79 135/14/79
f 137/14/80 140/14/80 147/14/80 139/14/80
f 139/14/81 147/14/81 146/14/81 144/14/81
f 140/14/82 145/14/82 149/14/82 147/14/82
f 147/14/83 149/14/83 148/14/83 146/14/83
f 145/14/84 132/14/84 150/14/84 153/14/84
f 136/14/85 148/14/85 155/14/85 152/14/85
f 71/17/86 61/15/86 133/15/86 144/17/86
f 45/10/1 49/10/1 125/10/1 120/10/1
f 70/14/87 78/14/87 148/14/87 136/14/87
f 62/16/88 66/16/88 141/16/88 134/16/88
f 35/10/89 45/10/89 120/10/89 108/10/89
f 56/16/1 57/5/1 130/5/1 127/16/1
f 40/12/90 35/10/90 108/10/90 117/12/90
f 61/9/91 68/9/91 135/9/91 133/9/91
f 66/16/92 56/16/92 127/16/92 141/16/92
f 60/10/93 62/10/93 134/10/93 116/10/93
f 38/5/94 42/8/94 113/8/94 111/5/94
f 59/9/95 70/9/95 136/9/95 115/9/95
f 42/8/96 41/7/96 112/7/96 113/8/96
f 67/9/97 59/9/97 115/9/97 142/9/97
f 76/14/98 71/14/98 144/14/98 146/14/98
f 68/14/99 76/14/99 146/14/99 135/14/99
f 41/7/100 39/11/100 114/11/100 112/7/100
f 53/10/101 65/10/101 138/10/101 110/10/101
f 57/5/102 54/5/102 129/5/102 130/5/102
f 54/5/1 50/5/1 128/5/1 129/5/1
f 39/11/103 40/12/103 117/12/103 114/11/103
f 50/5/1 46/5/1 122/5/1 128/5/1
f 46/5/104 38/5/104 111/5/104 122/5/104
f 78/14/105 67/14/105 142/14/105 148/14/105
f 49/10/1 53/10/1 110/10/1 125/10/1
f 65/10/106 60/10/106 116/10/106 138/10/106
f 153/14/107 150/14/107 151/14/107 154/14/107
f 154/14/108 151/14/108 152/14/108 155/14/108
f 148/14/109 149/14/109 154/14/109 155/14/109
f 132/9/110 143/9/110 151/9/110 150/9/110
f 143/9/111 136/9/111 152/9/111 151/9/111
f 149/14/112 145/14/112 153/14/112 154/14/112
f 62/10/113 60/10/113 67/9/113 68/9/113 61/9/113
f 60/10/114 59/9/114 67/9/114
f 65/10/115 63/9/115 69/9/115
f 60/10/116 65/10/116 69/9/116 70/9/116 59/9/116
f 71/17/117 72/17/117 66/16/117 62/16/117 61/15/117
f 74/14/34 73/14/34 52/14/34
f 64/14/118 74/14/118 52/14/118 55/14/118
f 140/14/119 137/14/119 126/14/119 109/14/119
f 160/1/120 174/1/120 168/1/120 165/1/120
f 174/1/121 173/1/121 164/1/121 168/1/121
f 175/1/122 164/1/122 173/1/122 156/1/122
f 162/1/123 175/1/123 156/1/123 163/1/123
f 178/1/124 162/1/124 163/1/124 169/1/124
f 161/1/125 159/1/125 171/1/125 177/1/125
f 167/1/126 161/1/126 177/1/126 166/1/126
f 180/1/127 181/1/127 182/1/127 183/1/127
f 183/1/128 185/1/128 184/1/128 182/1/128
f 184/1/129 186/1/129 206/1/129 204/1/129
f 188/1/130 189/1/130 187/1/130 186/1/130
f 190/1/131 188/1/131 189/1/131 191/1/131
f 192/1/2 191/1/2 190/1/2 193/1/2
f 192/1/132 193/1/132 194/1/132 195/1/132
f 196/1/133 195/1/133 194/1/133 197/1/133
f 196/1/134 197/1/134 198/1/134 199/1/134
f 200/1/135 201/1/135 199/1/135 198/1/135
f 202/1/136 203/1/136 201/1/136 200/1/136
f 171/1/137 179/1/137 196/1/137 199/1/137
f 168/1/1 164/1/1 184/1/1 182/1/1
f 176/1/10 169/1/10 191/1/10 192/1/10
f 164/1/138 175/1/138 186/1/138 184/1/138
f 157/1/1 170/1/1 194/1/1 193/1/1
f 160/1/139 165/1/139 181/1/139 180/1/139
f 178/1/1 157/1/1 193/1/1 190/1/1
f 158/1/140 159/1/140 198/1/140 197/1/140
f 161/1/1 167/1/1 202/1/1 200/1/1
f 162/1/1 178/1/1 190/1/1 188/1/1
f 156/1/141 173/1/141 185/1/141 187/1/141
f 165/1/1 168/1/1 182/1/1 181/1/1
f 172/1/10 176/1/10 192/1/10 195/1/10
f 167/1/139 166/1/139 203/1/139 202/1/139
f 170/1/1 158/1/1 197/1/1 194/1/1
f 174/1/10 160/1/10 180/1/10 183/1/10
f 169/1/10 163/1/10 189/1/10 191/1/10
f 159/1/1 161/1/1 200/1/1 198/1/1
f 175/1/1 162/1/1 188/1/1 186/1/1
f 163/1/10 156/1/10 187/1/10 189/1/10
f 166/1/10 177/1/10 201/1/10 203/1/10
f 177/1/10 171/1/10 199/1/10 201/1/10
f 173/1/10 174/1/10 183/1/10 185/1/10
f 179/1/10 172/1/10 195/1/10 196/1/10
f 183/1/142 201/1/142 200/1/142 182/1/142
f 206/1/143 207/1/143 205/1/143 204/1/143
f 186/1/144 187/1/144 207/1/144 206/1/144
f 185/1/145 184/1/145 204/1/145 205/1/145
f 187/1/146 185/1/146 205/1/146 207/1/146
f 220/1/147 214/13/147 235/5/147
f 209/30/1 240/20/1 241/20/1 216/30/1
f 231/8/1 210/8/1 230/8/1 212/8/1
f 210/8/148 217/8/148 215/8/148 230/8/148
f 231/8/1 235/25/1 240/20/1 209/30/1
f 240/20/2 208/14/2 211/14/2 241/20/2
f 239/30/3 234/30/3 218/30/3 219/30/3
f 209/30/1 216/30/1 234/30/1 239/30/1
f 231/8/149 212/8/149 221/1/149 220/1/149
f 208/14/150 240/20/150 235/5/150 214/13/150
f 213/7/151 212/8/151 230/8/151 215/7/151
f 210/8/152 239/30/152 219/30/152 217/8/152
f 235/25/153 231/8/153 220/1/153
f 212/8/154 213/7/154 221/1/154
f 231/8/1 209/30/1 239/30/1 210/8/1
f 225/1/10 235/1/10 260/1/10 245/1/10
f 239/30/10 234/30/10 261/30/10 254/30/10
f 236/1/1 224/1/1 264/1/1 262/1/1
f 238/1/1 237/1/1 253/1/1 252/1/1
f 232/1/1 223/1/1 249/1/1 251/1/1
f 231/1/155 232/1/155 251/1/155 250/1/155
f 237/1/1 233/1/1 263/1/1 253/1/1
f 230/8/10 210/8/10 259/8/10 258/8/10
f 240/20/2 241/20/2 242/20/2 243/20/2
f 240/20/150 243/20/150 227/20/150 244/20/150
f 244/20/156 227/20/156 229/20/156 228/20/156
f 258/8/157 263/8/157 248/8/157 247/8/157
f 250/8/158 251/8/158 249/25/158 260/25/158
f 259/8/159 253/8/159 263/8/159 258/8/159
f 257/30/160 256/20/160 255/20/160 262/30/160
f 254/30/161 261/30/161 264/30/161 252/30/161
f 249/25/162 246/25/162 245/25/162 260/25/162
f 261/30/163 257/30/163 262/30/163 264/30/163
f 259/8/164 254/30/164 252/30/164 253/8/164
f 224/1/1 238/1/1 252/1/1 264/1/1
f 226/1/165 225/1/165 245/1/165 246/1/165
f 212/8/10 230/8/10 258/8/10 247/8/10
f 233/1/1 222/1/1 248/1/1 263/1/1
f 222/1/166 212/1/166 247/1/166 248/1/166
f 216/30/10 241/20/10 256/20/10 257/30/10
f 241/20/167 242/20/167 255/20/167 256/20/167
f 210/8/10 239/30/10 254/30/10 259/8/10
f 223/1/1 226/1/1 246/1/1 249/1/1
f 235/25/10 231/8/10 250/8/10 260/25/10
f 242/1/1 236/1/1 262/1/1 255/1/1
f 234/30/10 216/30/10 257/30/10 261/30/10
f 236/1/168 242/1/168 241/1/168 216/1/168
f 234/30/169 224/1/169 236/1/169 216/1/169
f 239/30/3 238/1/3 224/1/3 234/30/3
f 210/8/152 237/1/152 238/1/152 239/30/152
f 237/1/148 210/8/148 230/8/148 233/1/148
f 233/1/151 230/8/151 212/8/151 222/1/151
f 223/1/170 232/1/170 231/1/170 235/25/170
f 226/1/150 223/1/150 235/25/150 225/1/150
f 227/20/1 243/20/1 229/20/1
f 243/20/1 242/20/1 229/20/1
