# Blender 4.0.2
# www.blender.org
mtllib bumpers.mtl
o Sphere
v 0.000000 0.141527 0.000000
v 0.012714 0.138101 -0.017500
v 0.024184 0.134366 -0.033287
v 0.033287 0.118880 -0.045816
v 0.039131 0.099366 -0.053859
v 0.041145 0.077735 -0.056631
v 0.020572 0.138101 -0.006684
v 0.039131 0.134366 -0.012714
v 0.053859 0.118880 -0.017500
v 0.063316 0.099366 -0.020572
v 0.066574 0.077735 -0.021631
v 0.020572 0.138101 0.006684
v 0.039131 0.134366 0.012714
v 0.053859 0.118880 0.017500
v 0.063316 0.099366 0.020572
v 0.066574 0.077735 0.021631
v 0.012714 0.138101 0.017500
v 0.024184 0.134366 0.033287
v 0.033287 0.118880 0.045816
v 0.039131 0.099366 0.053859
v 0.041145 0.077735 0.056631
v 0.000000 0.138101 0.021631
v 0.000000 0.134366 0.041145
v 0.000000 0.118880 0.056631
v 0.000000 0.099366 0.066574
v 0.000000 0.077735 0.070000
v -0.012714 0.138101 0.017500
v -0.024184 0.134366 0.033287
v -0.033287 0.118880 0.045816
v -0.039131 0.099366 0.053859
v -0.041145 0.077735 0.056631
v -0.020572 0.138101 0.006684
v -0.039131 0.134366 0.012715
v -0.053859 0.118880 0.017500
v -0.063316 0.099366 0.020572
v -0.066574 0.077735 0.021631
v -0.020572 0.138101 -0.006684
v -0.039131 0.134366 -0.012714
v -0.053859 0.118880 -0.017500
v -0.063316 0.099366 -0.020572
v -0.066574 0.077735 -0.021631
v -0.012714 0.138101 -0.017500
v -0.024184 0.134366 -0.033287
v -0.033287 0.118880 -0.045816
v -0.039131 0.099366 -0.053859
v -0.041145 0.077735 -0.056631
v -0.000000 0.138101 -0.021631
v -0.000000 0.134366 -0.041145
v 0.000000 0.118880 -0.056631
v -0.000000 0.099366 -0.066574
v -0.000000 0.077735 -0.070000
v 0.042472 0.072893 -0.013800
v 0.026249 0.072893 -0.036129
v 0.042472 0.072893 0.013800
v 0.026249 0.072893 0.036129
v 0.000000 0.072893 0.044658
v -0.026249 0.072893 0.036129
v -0.042472 0.072893 0.013800
v -0.042472 0.072893 -0.013800
v -0.026249 0.072893 -0.036129
v -0.000000 0.072893 -0.044658
v 0.042472 0.000599 -0.013800
v 0.026249 0.000599 -0.036129
v 0.042472 0.000599 0.013800
v 0.026249 0.000599 0.036129
v 0.000000 0.000599 0.044658
v -0.026249 0.000599 0.036129
v -0.042472 0.000599 0.013800
v -0.042472 0.000599 -0.013800
v -0.026249 0.000599 -0.036129
v -0.000000 0.000599 -0.044658
vn 0.0508 0.9864 -0.1562
vn 0.3056 0.1490 -0.9404
vn 0.0610 0.9803 -0.1877
vn 0.2239 0.6892 -0.6892
vn 0.2781 0.4361 -0.8559
vn 0.8000 0.1490 -0.5812
vn 0.1596 0.9803 -0.1160
vn 0.5862 0.6892 -0.4259
vn 0.7280 0.4361 -0.5290
vn 0.1329 0.9864 -0.0966
vn 0.8999 0.4361 -0.0000
vn 0.1643 0.9864 -0.0000
vn 0.9888 0.1490 -0.0000
vn 0.1973 0.9803 -0.0000
vn 0.7246 0.6892 -0.0000
vn 0.7280 0.4361 0.5290
vn 0.1329 0.9864 0.0966
vn 0.8000 0.1490 0.5812
vn 0.1596 0.9803 0.1160
vn 0.5862 0.6892 0.4259
vn 0.2239 0.6892 0.6892
vn 0.2781 0.4361 0.8559
vn 0.0508 0.9864 0.1562
vn 0.3056 0.1490 0.9404
vn 0.0610 0.9803 0.1877
vn -0.2239 0.6892 0.6892
vn -0.2781 0.4361 0.8559
vn -0.0508 0.9864 0.1562
vn -0.3056 0.1490 0.9404
vn -0.0610 0.9803 0.1877
vn -0.8000 0.1490 0.5812
vn -0.1596 0.9803 0.1160
vn -0.5862 0.6892 0.4259
vn -0.7280 0.4361 0.5290
vn -0.1329 0.9864 0.0966
vn -0.1643 0.9864 -0.0000
vn -0.9888 0.1490 -0.0000
vn -0.1973 0.9803 -0.0000
vn -0.7246 0.6892 -0.0000
vn -0.8999 0.4361 -0.0000
vn -0.7280 0.4361 -0.5290
vn -0.1329 0.9864 -0.0966
vn -0.8000 0.1490 -0.5812
vn -0.1596 0.9803 -0.1160
vn -0.5862 0.6892 -0.4259
vn -0.2781 0.4361 -0.8559
vn -0.0508 0.9864 -0.1562
vn -0.3056 0.1490 -0.9404
vn -0.0610 0.9803 -0.1877
vn 0.1593 -0.9804 -0.1158
vn -0.2239 0.6892 -0.6892
vn 0.8090 -0.0000 -0.5878
vn -0.0609 -0.9804 -0.1873
vn 0.0609 -0.9804 0.1873
vn 0.1593 -0.9804 0.1158
vn -0.1969 -0.9804 -0.0000
vn 0.0609 -0.9804 -0.1873
vn -0.1593 -0.9804 0.1158
vn -0.1593 -0.9804 -0.1158
vn 0.1969 -0.9804 -0.0000
vn -0.0609 -0.9804 0.1873
vn -0.0000 -1.0000 -0.0000
vn -0.8090 -0.0000 -0.5878
vn -0.3090 -0.0000 0.9511
vn 1.0000 -0.0000 -0.0000
vn -0.3090 -0.0000 -0.9511
vn -0.8090 -0.0000 0.5878
vn 0.8090 -0.0000 0.5878
vn 0.3090 -0.0000 -0.9511
vn -1.0000 -0.0000 -0.0000
vn 0.3090 -0.0000 0.9511
vt 0.700000 0.900000
vt 0.650000 1.000000
vt 0.600000 0.900000
vt 0.700000 0.500000
vt 0.700000 0.600000
vt 0.600000 0.600000
vt 0.600000 0.500000
vt 0.700000 0.800000
vt 0.600000 0.800000
vt 0.700000 0.700000
vt 0.600000 0.700000
vt 0.500000 0.600000
vt 0.500000 0.500000
vt 0.500000 0.900000
vt 0.500000 0.800000
vt 0.500000 0.700000
vt 0.550000 1.000000
vt 0.400000 0.700000
vt 0.400000 0.600000
vt 0.450000 1.000000
vt 0.400000 0.900000
vt 0.400000 0.500000
vt 0.400000 0.800000
vt 0.300000 0.700000
vt 0.300000 0.600000
vt 0.350000 1.000000
vt 0.300000 0.900000
vt 0.300000 0.500000
vt 0.300000 0.800000
vt 0.200000 0.800000
vt 0.200000 0.700000
vt 0.200000 0.600000
vt 0.250000 1.000000
vt 0.200000 0.900000
vt 0.200000 0.500000
vt 0.100000 0.800000
vt 0.100000 0.700000
vt 0.100000 0.600000
vt 0.150000 1.000000
vt 0.100000 0.900000
vt 0.100000 0.500000
vt 0.000000 0.600000
vt 0.000000 0.500000
vt 0.000000 0.900000
vt 0.000000 0.800000
vt 0.000000 0.700000
vt 0.050000 1.000000
vt 1.000000 0.900000
vt 0.950000 1.000000
vt 0.900000 0.900000
vt 1.000000 0.500000
vt 1.000000 0.600000
vt 0.900000 0.600000
vt 0.900000 0.500000
vt 1.000000 0.800000
vt 0.900000 0.800000
vt 1.000000 0.700000
vt 0.900000 0.700000
vt 0.800000 0.700000
vt 0.800000 0.600000
vt 0.850000 1.000000
vt 0.800000 0.900000
vt 0.800000 0.500000
vt 0.800000 0.800000
vt 0.750000 1.000000
s 0
usemtl Material.001
f 47/1/1 1/2/1 2/3/1
f 2/3/10 1/17/10 7/14/10
f 7/14/12 1/20/12 12/21/12
f 12/21/17 1/26/17 17/27/17
f 17/27/23 1/33/23 22/34/23
f 22/34/28 1/39/28 27/40/28
f 27/40/35 1/47/35 32/44/35
f 32/48/36 1/49/36 37/50/36
f 37/50/42 1/61/42 42/62/42
f 42/62/47 1/65/47 47/1/47
usemtl Material
f 51/4/2 50/5/2 5/6/2 6/7/2
f 48/8/3 47/1/3 2/3/3 3/9/3
f 49/10/4 48/8/4 3/9/4 4/11/4
f 50/5/5 49/10/5 4/11/5 5/6/5
f 6/7/6 5/6/6 10/12/6 11/13/6
f 3/9/7 2/3/7 7/14/7 8/15/7
f 4/11/8 3/9/8 8/15/8 9/16/8
f 5/6/9 4/11/9 9/16/9 10/12/9
f 10/12/11 9/16/11 14/18/11 15/19/11
f 11/13/13 10/12/13 15/19/13 16/22/13
f 8/15/14 7/14/14 12/21/14 13/23/14
f 9/16/15 8/15/15 13/23/15 14/18/15
f 15/19/16 14/18/16 19/24/16 20/25/16
f 16/22/18 15/19/18 20/25/18 21/28/18
f 13/23/19 12/21/19 17/27/19 18/29/19
f 14/18/20 13/23/20 18/29/20 19/24/20
f 19/24/21 18/29/21 23/30/21 24/31/21
f 20/25/22 19/24/22 24/31/22 25/32/22
f 21/28/24 20/25/24 25/32/24 26/35/24
f 18/29/25 17/27/25 22/34/25 23/30/25
f 24/31/26 23/30/26 28/36/26 29/37/26
f 25/32/27 24/31/27 29/37/27 30/38/27
f 26/35/29 25/32/29 30/38/29 31/41/29
f 23/30/30 22/34/30 27/40/30 28/36/30
f 31/41/31 30/38/31 35/42/31 36/43/31
f 28/36/32 27/40/32 32/44/32 33/45/32
f 29/37/33 28/36/33 33/45/33 34/46/33
f 30/38/34 29/37/34 34/46/34 35/42/34
f 36/51/37 35/52/37 40/53/37 41/54/37
f 33/55/38 32/48/38 37/50/38 38/56/38
f 34/57/39 33/55/39 38/56/39 39/58/39
f 35/52/40 34/57/40 39/58/40 40/53/40
f 40/53/41 39/58/41 44/59/41 45/60/41
f 41/54/43 40/53/43 45/60/43 46/63/43
f 38/56/44 37/50/44 42/62/44 43/64/44
f 39/58/45 38/56/45 43/64/45 44/59/45
f 45/60/46 44/59/46 49/10/46 50/5/46
f 46/63/48 45/60/48 50/5/48 51/4/48
f 43/64/49 42/62/49 47/1/49 48/8/49
f 6/7/50 11/13/50 52/13/50 53/7/50
f 44/59/51 43/64/51 48/8/51 49/10/51
f 53/7/52 52/13/52 62/13/52 63/7/52
f 46/63/53 51/4/53 61/4/53 60/63/53
f 21/28/54 26/35/54 56/35/54 55/28/54
f 16/22/55 21/28/55 55/28/55 54/22/55
f 36/51/56 41/54/56 59/54/56 58/51/56
f 51/4/57 6/7/57 53/7/57 61/4/57
f 31/41/58 36/43/58 58/43/58 57/41/58
f 41/54/59 46/63/59 60/63/59 59/54/59
f 11/13/60 16/22/60 54/22/60 52/13/60
f 26/35/61 31/41/61 57/41/61 56/35/61
f 62/13/62 64/22/62 65/28/62 66/35/62 67/41/62 68/43/62 69/54/62 70/63/62 71/4/62 63/7/62
f 59/54/63 60/63/63 70/63/63 69/54/63
f 56/35/64 57/41/64 67/41/64 66/35/64
f 52/13/65 54/22/65 64/22/65 62/13/65
f 60/63/66 61/4/66 71/4/66 70/63/66
f 57/41/67 58/43/67 68/43/67 67/41/67
f 54/22/68 55/28/68 65/28/68 64/22/68
f 61/4/69 53/7/69 63/7/69 71/4/69
f 58/51/70 59/54/70 69/54/70 68/51/70
f 55/28/71 56/35/71 66/35/71 65/28/71
